<?xml version="1.0" encoding="UTF-8"?>
<svg id="Warstwa_1" data-name="Warstwa 1" xmlns="http://www.w3.org/2000/svg" width="1080" height="1080" xmlns:xlink="http://www.w3.org/1999/xlink" viewBox="0 0 1080 1080">
  <defs>
    <style>
      .cls-1 {
        fill: url(#Gradient_bez_nazwy_32);
      }
    </style>
    <linearGradient id="Gradient_bez_nazwy_32" data-name="Gradient bez nazwy 32" x1="-2160" y1="540" x2="3240" y2="540" gradientUnits="userSpaceOnUse">
      <stop offset="0" stop-color="#000"/>
      <stop offset=".2" stop-color="#000"/>
      <stop offset=".417" stop-color="#192195"/>
      <stop offset=".439" stop-color="#333fff"/>
      <stop offset=".533" stop-color="#882aff"/>
      <stop offset=".578" stop-color="#f611ff"/>
      <stop offset=".8" stop-color="#000"/>
      <stop offset="1" stop-color="#000"/>
    </linearGradient>
  </defs>
  <rect class="cls-1" x="-2160" width="5400" height="1080"/>
  <path d="M0,0v1080h1080V0H0ZM120,645h180c8.284,0,15-6.716,15-15v-45c0-8.284-6.716-15-15-15h-75c-8.284,0-15-6.716-15-15s6.716-15,15-15h105c8.284,0,15,6.716,15,15v105c0,8.284-6.716,15-15,15H90c-8.284,0-15-6.716-15-15v-240c0-8.284,6.716-15,15-15h251.464l30,30H120c-8.284,0-15,6.716-15,15v180c0,8.284,6.716,15,15,15ZM378.536,435l-30-30h22.929l30,30h-22.929ZM735,501.4v158.6c0,8.284-6.716,15-15,15s-15-6.716-15-15v-210c0-8.284-6.716-15-15-15h-120c-8.284,0-15,6.716-15,15v210c0,8.284-6.716,15-15,15s-15-6.716-15-15v-210c0-8.284-6.716-15-15-15h-101.464l-30-30h292.929l81.701,81.701c-8.685-1.851-18.166,4.462-18.166,14.699ZM960,675h-8.791c-1.005,0-2-.102-2.971-.298l-269.702-269.702h22.929l267.224,267.224c-2.452,1.746-5.449,2.776-8.688,2.776ZM975,660c0,3.239-1.03,6.236-2.776,8.688l-263.688-263.688h2.255c3.976,0,7.789,1.578,10.602,4.388l198.006,197.821c9.451,9.443,25.602,2.749,25.602-10.612v-176.598c0-8.284,6.716-15,15-15s15,6.716,15,15v240Z"/>
</svg>